<?xml version="1.0" encoding="UTF-8"?>
<svg width="128" height="128" viewBox="0 0 128 128" fill="none" xmlns="http://www.w3.org/2000/svg">
    <rect 
        x="24" 
        y="32" 
        width="80" 
        height="64" 
        rx="8" 
        fill="url(#card-gradient)" 
        transform="rotate(-5 24 32)"
    />
    
    <rect 
        x="28" 
        y="28" 
        width="80" 
        height="64" 
        rx="8" 
        fill="url(#card-gradient)" 
        transform="rotate(5 28 28)"
    />
    
    <path 
        d="M64 48c-4.4 0-8 3.6-8 8h4c0-2.2 1.8-4 4-4s4 1.8 4 4c0 2-1.5 3.7-3.4 3.9l-.6.1v4h4v-2.8c3.4-.8 6-3.9 6-7.2 0-4.4-3.6-8-8-8zm0 32a2 2 0 100-4 2 2 0 000 4z" 
        fill="currentColor"
    />

    <defs>
        <linearGradient 
            id="card-gradient" 
            x1="0" 
            y1="0" 
            x2="1" 
            y2="1" 
            gradientUnits="userSpaceOnUse"
        >
            <stop offset="0%" stop-color="var(--color-primary-500)" />
            <stop offset="100%" stop-color="var(--color-accent-500)" />
        </linearGradient>
    </defs>

    <style>
        @media (prefers-color-scheme: dark) {
            path { fill: #fff; }
        }
        @media (prefers-color-scheme: light) {
            path { fill: #fff; }
        }
    </style>
</svg> 